<svg fill="#5CB85C" xmlns="http://www.w3.org/2000/svg" xmlns:xlink="http://www.w3.org/1999/xlink" version="1.1" x="0px" y="0px" viewBox="0 0 90 90" style="enable-background:new 0 0 90 90;" xml:space="preserve"><path d="M58.4,58.8L51.6,52c-1.6-1.6-2.4-3.6-2.4-5.8c0-2.2,0.9-4.3,2.4-5.8c3.2-3.2,8.4-3.2,11.7,0l6.8,6.8l0.8-0.8l1.1-10.2  L5.1,29L2.7,51.3c-0.3,3.3,2,6.2,5.3,6.6l46.2,4.9L58.4,58.8z"></path><path d="M72.6,29.8l0.4-3.3c0.2-1.6-0.3-3.2-1.3-4.4c-1-1.2-2.4-2-4-2.2L12.7,14c-3.3-0.4-6.2,2-6.6,5.3l-0.4,3.3L72.6,29.8z"></path><path d="M79.4,42.9L70,52.2l-9.3-9.3c-1.8-1.8-4.7-1.8-6.6,0c-1.8,1.8-1.8,4.7,0,6.6l9.3,9.3l-9.3,9.3c-1.8,1.8-1.8,4.7,0,6.6  c1.8,1.8,4.7,1.8,6.6,0l9.3-9.3l9.3,9.3c1.8,1.8,4.7,1.8,6.6,0c1.8-1.8,1.8-4.7,0-6.6l-9.3-9.3l9.3-9.3c1.8-1.8,1.8-4.7,0-6.6  C84.1,41.1,81.2,41.1,79.4,42.9z"></path></svg>