<svg fill="#5CB85C" xmlns:dc="http://purl.org/dc/elements/1.1/" xmlns:cc="http://creativecommons.org/ns#" xmlns:rdf="http://www.w3.org/1999/02/22-rdf-syntax-ns#" xmlns:svg="http://www.w3.org/2000/svg" xmlns="http://www.w3.org/2000/svg" xmlns:sodipodi="http://sodipodi.sourceforge.net/DTD/sodipodi-0.dtd" xmlns:inkscape="http://www.inkscape.org/namespaces/inkscape" viewBox="0 0 582.55902 729.23369" version="1.1" x="0px" y="0px"><g transform="translate(-60.908004,-118.659)"><path style="" d="m 352.55,118.659 c -93.588,0 -172.55,62.005 -198.305,147.154 -2.73,-1.118 -5.743,-1.818 -8.971,-1.818 -13.281,0 -24.122,10.779 -24.122,24.121 l 0,75.638 c 0.07,13.405 10.841,24.122 24.122,24.122 9.186,0 16.874,-5.156 20.971,-12.728 -3.538,-14.585 -5.455,-29.822 -5.455,-45.213 0,-56.91 25.099,-110.538 68.729,-147.154 43.567,-36.554 101.15,-51.752 158.185,-41.698 77.576,13.777 140.964,77.633 154.184,155.397 4.903,29.044 3.382,57.799 -3.879,84.487 1.303,1.178 2.632,2.22 4.122,3.15 l 0,51.033 -47.154,47.153 c -8.936,0.247 -16.12,7.485 -16.12,16.484 0,9.062 7.361,16.486 16.485,16.486 9.061,0 16.423,-7.304 16.485,-16.365 l 50.547,-50.425 c 2.235,-2.234 3.393,-5.32 3.393,-8.486 l 0,-55.394 c 7.386,-4.096 12.607,-11.788 12.607,-20.849 l 0,-75.638 c 0,-13.342 -10.778,-24.121 -24.121,-24.121 -1.18,0 -2.216,0.541 -3.395,0.727 C 524.73,180.07 445.769,118.659 352.55,118.659 Z m -8.848,31.515 c -0.379,0.02 -0.711,0.222 -1.091,0.243 -13.493,0.744 -26.489,2.869 -39.03,6.424 -12.368,3.506 -24.265,8.132 -35.395,14.061 -57.388,30.1 -96.73,90.101 -96.73,159.398 0,62.682 32.135,117.613 80.729,149.699 15.64,10.365 14.292,34.15 -3.272,40.728 C 139.125,562.06 60.908004,667.21 60.908004,791.52 182.046,838.493 303.172,856.114 424.309,844.37 c 44.212,-4.287 88.398,-12.985 132.61,-25.092 4.244,-1.162 8.483,-1.917 12.728,-3.151 24.225,-7.01 48.501,-15.248 72.729,-24.607 0.362,-0.14 0.728,-0.224 1.091,-0.363 0.05,-124.31 -78.276,-229.46 -188.125,-270.794 -17.379,-6.454 -19.154,-30.186 -3.637,-40.364 56.848,-37.361 91.273,-105.804 78.424,-181.458 -12.348,-72.861 -71.688,-132.854 -144.486,-145.7 -14.244,-2.522 -28.327,-3.333 -41.941,-2.667 z" fill="#5CB85C"></path></g></svg>